<svg width="24" height="24" viewBox="0 0 24 24" fill="none" xmlns="http://www.w3.org/2000/svg">
<path fill-rule="evenodd" clip-rule="evenodd" d="M1.5094 12.7373V19.13H4.74834C6.7591 19.13 8.13821 19.1135 8.38523 19.0864C9.25919 18.9908 9.88531 18.8053 10.3839 18.4946C11.6007 17.7362 12.2629 16.3654 12.1211 14.8984C12.0377 14.0355 11.744 13.3954 11.2057 12.9033C10.9796 12.6966 10.6244 12.4671 10.3723 12.3648L10.1561 12.277L10.3916 12.1353C11.0825 11.7196 11.4514 11.2449 11.634 10.5367C11.7588 10.0522 11.7508 9.28069 11.6155 8.75251C11.2685 7.39852 10.2362 6.61365 8.50362 6.38655C8.30729 6.36081 6.88991 6.34454 4.84624 6.34454H1.5094V12.7373ZM14.9189 7.47669L14.93 8.28603H17.6961H20.4622L20.4733 7.47669L20.4844 6.66736H17.6961H14.9078L14.9189 7.47669ZM4.09108 9.97381V11.3902L5.94538 11.3752C7.67117 11.3611 7.82009 11.3542 8.09432 11.2754C8.60656 11.1282 8.85083 10.9455 9.0168 10.5854C9.09626 10.413 9.11101 10.3132 9.11101 9.94779C9.11101 9.54669 9.10183 9.49665 8.98717 9.27164C8.67946 8.66806 8.15435 8.5602 5.5151 8.5584L4.09108 8.55741V9.97381ZM16.9831 9.21371C15.4078 9.41586 14.1017 10.3248 13.4944 11.6413C13.162 12.3619 13.0246 13.0128 12.9945 14.0098C12.9238 16.3508 13.6368 17.7499 15.3449 18.6221C15.8014 18.8552 16.2066 18.9993 16.7143 19.1091C17.2008 19.2144 18.4631 19.2163 18.987 19.1126C20.0175 18.9086 20.8319 18.4735 21.4619 17.7905C21.923 17.2906 22.2956 16.6339 22.3331 16.2554L22.3472 16.113L21.0867 16.1022L19.8262 16.0913L19.6935 16.2866C19.2452 16.946 18.5141 17.2621 17.6239 17.1815C16.4165 17.072 15.648 16.3157 15.5371 15.1275L15.5124 14.8632H19.0015H22.4907V14.2938C22.4907 13.5697 22.4318 12.9978 22.3065 12.5038C21.9839 11.2322 21.1437 10.1656 20.0669 9.661C19.2053 9.25723 18.003 9.08287 16.9831 9.21371ZM17.4298 11.2412C16.8108 11.3304 16.3993 11.5414 16.109 11.9183C15.9107 12.176 15.7095 12.5956 15.6464 12.8834C15.6226 12.9919 15.5934 13.1129 15.5814 13.1523C15.5609 13.2199 15.6815 13.224 17.7186 13.224H19.8774L19.8489 12.9952C19.8184 12.7516 19.7159 12.4205 19.6038 12.2037C19.4225 11.8532 18.9411 11.4796 18.4914 11.3408C18.2357 11.2618 17.6611 11.2079 17.4298 11.2412ZM4.09108 15.2197V16.9235L6.00685 16.9063C8.07834 16.8876 8.14427 16.8811 8.60422 16.648C9.0329 16.4308 9.31066 15.986 9.37615 15.4118C9.46986 14.59 9.20088 14.02 8.58709 13.7397C8.15358 13.5418 7.87713 13.5189 5.9044 13.5173L4.09108 13.5159V15.2197Z" fill="white"/>
</svg>
