<svg viewBox="0 0 24 24" xmlns="http://www.w3.org/2000/svg">
<path d="M11.2012 3.07937C10.6551 3.135 9.72352 3.31572 9.72352 3.36608C9.72352 3.3813 9.89577 3.627 10.1063 3.912C10.9583 5.0655 12.054 6.79965 12.7969 8.17057L13.1345 8.79353L13.4559 8.65746C14.357 8.27601 15.2654 7.75637 16.0269 7.18669C16.522 6.81631 17.3103 6.04378 17.6479 5.59803C17.9253 5.23176 17.9429 5.27944 17.3715 4.84963C15.7932 3.66243 13.8896 3.03703 11.9204 3.05876C11.6017 3.06227 11.2781 3.07154 11.2012 3.07937ZM7.66658 4.17435C5.86305 5.17732 4.44109 6.79298 3.6801 8.70387C3.53553 9.06691 3.28739 9.88967 3.23567 10.1776L3.20764 10.3336L4.51857 10.3087C6.60198 10.2691 8.26924 10.091 10.0096 9.72205C10.6439 9.58758 11.4787 9.37331 11.5572 9.32479C11.663 9.25945 10.2649 6.89974 9.27253 5.46863C8.81951 4.81532 8.16189 3.93101 8.12906 3.93101C8.11536 3.93101 7.90724 4.04052 7.66658 4.17435ZM18.7296 6.75408C18.2139 7.41266 17.3153 8.2322 16.4731 8.81194C15.8401 9.24767 14.8246 9.80085 14.1084 10.1L13.8405 10.2119L13.8955 10.3364C13.9258 10.4049 14.032 10.6493 14.1315 10.8796C14.231 11.1099 14.3308 11.3044 14.3532 11.3119C14.3756 11.3193 14.5698 11.2975 14.7848 11.2633C16.2635 11.0282 17.7273 11.1107 19.3287 11.5193C19.8222 11.6452 20.544 11.8776 20.8763 12.0176C20.9387 12.0439 20.9462 12.0193 20.9462 11.7874C20.9462 10.3861 20.4175 8.59224 19.6313 7.32576C19.3925 6.94099 19.0347 6.44688 18.9954 6.4476C18.981 6.44788 18.8614 6.58578 18.7296 6.75408ZM11.7204 10.924C10.3704 11.3165 8.66659 11.6171 6.86793 11.7802C5.97691 11.861 4.1602 11.9214 3.54308 11.8907L3.05383 11.8664V12.1679C3.05383 13.7105 3.63146 15.5738 4.52412 16.9109C4.80572 17.3327 5.39002 18.0696 5.44214 18.0686C5.45751 18.0683 5.55996 17.9295 5.66979 17.76C5.92507 17.3661 6.53385 16.5546 6.92089 16.0922C7.39284 15.5284 8.65501 14.2909 9.20432 13.8534C10.2851 12.9926 11.4327 12.313 12.51 11.8958C12.6696 11.8339 12.7954 11.7709 12.7895 11.7556C12.6781 11.4678 12.3291 10.7614 12.2995 10.7639C12.2776 10.7658 12.017 10.8378 11.7204 10.924ZM16.0737 12.7069C15.7416 12.7174 14.9933 12.7939 14.9478 12.822C14.9318 12.8319 14.9746 12.9966 15.0428 13.1881C15.7321 15.121 16.2095 17.2947 16.356 19.1674C16.3817 19.4969 16.4064 19.7707 16.4107 19.7759C16.4293 19.7979 17.029 19.4051 17.3851 19.1377C18.7633 18.1027 19.9099 16.5276 20.4595 14.914C20.6483 14.3598 20.8035 13.7167 20.7589 13.6734C20.7047 13.6208 20.1591 13.4157 19.5662 13.225C18.3623 12.8378 17.2336 12.6703 16.0737 12.7069ZM12.9585 13.3725C10.8008 14.2177 8.64339 16.0826 7.04454 18.4847C6.8266 18.8122 6.64827 19.1036 6.64827 19.1323C6.64827 19.217 7.46281 19.7307 8.06608 20.0265C10.0356 20.9919 12.2771 21.2017 14.3923 20.6185L14.8475 20.493L14.8215 19.8901C14.764 18.5566 14.5311 17.1036 14.1328 15.593C13.9282 14.8172 13.399 13.2363 13.3444 13.2381C13.3189 13.2389 13.1452 13.2994 12.9585 13.3725Z" /></svg>
