<svg width="24" height="24" viewBox="0 0 24 24" fill="none" xmlns="http://www.w3.org/2000/svg">
<path fill-rule="evenodd" clip-rule="evenodd" d="M4.46014 4.76577C4.41341 4.7752 4.27005 4.80349 4.14156 4.82859C4.01306 4.85374 3.74652 4.95144 3.54925 5.04578C3.26036 5.18387 3.12133 5.2865 2.83465 5.57318C2.61734 5.7905 2.48408 5.95675 2.49245 6.00004C2.50689 6.07471 11.8955 12.6773 11.9923 12.6808C12.0381 12.6825 21.1432 6.33956 21.4404 6.09893L21.5297 6.02667L21.4347 5.87299C21.2891 5.63745 20.8232 5.23332 20.5051 5.06668C19.875 4.73654 20.6118 4.76386 12.1273 4.75583C7.9571 4.75188 4.50687 4.75638 4.46014 4.76577ZM2.0272 12.4811L2.03892 16.9944L2.15862 17.3481C2.26961 17.6761 2.28401 17.6977 2.35703 17.6454C2.58934 17.4791 8.25381 12.3576 8.24502 12.3218C8.23376 12.2761 2.10323 7.96892 2.04843 7.96828C2.0303 7.96807 2.02074 9.99888 2.0272 12.4811ZM18.842 10.126C17.1499 11.3116 15.7607 12.3002 15.755 12.323C15.746 12.358 21.4137 17.4815 21.6428 17.6454C21.7158 17.6977 21.7302 17.6761 21.8412 17.3481L21.9609 16.9944L21.9728 12.4811C21.9794 9.99888 21.9698 7.96849 21.9516 7.96917C21.9333 7.96989 20.534 8.94046 18.842 10.126ZM13.3804 13.9443C12.9365 14.2576 12.4987 14.5531 12.4074 14.6009C12.2044 14.7073 11.815 14.7177 11.6293 14.6217C11.559 14.5853 11.1258 14.2952 10.6667 13.977C10.2076 13.6588 9.81507 13.4047 9.79434 13.4124C9.75089 13.4284 3.58935 18.9701 3.58935 18.9931C3.58935 19.0015 3.74703 19.0618 3.93979 19.127L4.29023 19.2457H11.9574C18.0996 19.2457 19.6669 19.2347 19.837 19.1906C20.1201 19.1172 20.4113 19.0068 20.4069 18.9744C20.4041 18.954 15.5623 14.5915 14.4326 13.5916L14.1875 13.3746L13.3804 13.9443Z" fill="white"/>
</svg>
