<svg width="24" height="24" viewBox="0 0 24 24" fill="none" xmlns="http://www.w3.org/2000/svg">
<path fill-rule="evenodd" clip-rule="evenodd" d="M5.21653 2.61976C4.66773 2.75285 4.12946 3.17401 3.88593 3.66075C3.4886 4.455 3.6345 5.3516 4.26374 5.98225C4.66643 6.3858 5.13541 6.58774 5.67001 6.58774C6.19905 6.58774 6.65855 6.39092 7.06442 5.99039C7.85732 5.20801 7.85675 3.9476 7.06316 3.15502C6.57186 2.66433 5.87065 2.46109 5.21653 2.61976ZM15.287 7.92537C14.316 8.14045 13.5272 8.66578 13.0261 9.4314L12.9082 9.61162L12.8878 8.86211L12.8675 8.11263L11.2105 8.10202L9.55341 8.09141V13.6628V19.2342H11.2816H13.0098L13.0105 16.2962C13.0114 12.7424 13.0324 12.4691 13.3563 11.8066C13.6809 11.1425 14.3675 10.8027 15.2475 10.8706C16.0386 10.9316 16.5236 11.3597 16.7296 12.179C16.8451 12.6387 16.8716 13.4024 16.8723 16.2962L16.8729 19.1935H18.604H20.3351L20.3188 15.5236C20.3034 12.0273 20.2986 11.8287 20.2169 11.3251C19.8946 9.33974 19.0763 8.3336 17.4829 7.96344C16.9613 7.8423 15.7565 7.82144 15.287 7.92537ZM3.9418 13.6632V19.2342H5.67001H7.39823V13.6632V8.0923H5.67001H3.9418V13.6632Z" fill="white"/>
</svg>
