<svg width="24" height="24" viewBox="0 0 24 24" fill="none" xmlns="http://www.w3.org/2000/svg">
<path fill-rule="evenodd" clip-rule="evenodd" d="M3.93545 3.21314C3.57588 3.34188 3.2888 3.64358 3.19525 3.99098C3.17013 4.08421 3.15998 6.95871 3.16657 12.09L3.17685 20.0445L3.26383 20.2071C3.39752 20.457 3.52614 20.5904 3.75626 20.7179L3.96693 20.8346H12.0061H20.0453L20.2559 20.7179C20.486 20.5904 20.6147 20.457 20.7484 20.2071L20.8353 20.0445V12.0054V3.96621L20.7186 3.75553C20.5912 3.52542 20.4578 3.39679 20.2079 3.26311L20.0453 3.17612L12.0653 3.16779C5.42256 3.16083 4.06032 3.16846 3.93545 3.21314ZM7.80756 5.82557C7.546 5.88893 7.07135 6.09993 6.84614 6.25293C6.42956 6.53594 6.00825 7.05483 5.80263 7.53805C5.5976 8.01984 5.56687 8.33774 5.56687 9.97607V11.4523H6.69274H7.81862L7.82036 10.0795C7.82218 8.64232 7.83604 8.50863 8.00243 8.32478C8.18992 8.11762 8.20995 8.11505 9.74446 8.10205L11.1765 8.08992V6.92679V5.76366L9.6062 5.76694C8.40435 5.76947 7.98233 5.78322 7.80756 5.82557ZM16.1918 13.9312C16.19 15.3684 16.1761 15.5021 16.0098 15.686C15.8223 15.8931 15.8022 15.8957 14.2677 15.9087L12.8357 15.9208V17.0863V18.2518L14.485 18.2371C16.0193 18.2234 16.1511 18.2167 16.3746 18.1416C17.2227 17.8565 17.9348 17.1885 18.2357 16.3957C18.4197 15.9112 18.4425 15.6549 18.4439 14.0497L18.4453 12.5584H17.3194H16.1936L16.1918 13.9312Z" fill="white"/>
</svg>
