<svg width="24" height="24" viewBox="0 0 24 24" fill="none" xmlns="http://www.w3.org/2000/svg">
<path fill-rule="evenodd" clip-rule="evenodd" d="M20.412 4.09201C20.2578 4.14778 13.3723 6.68083 8.412 8.50657C5.34959 9.63374 2.75909 10.5911 2.65533 10.634C2.39966 10.7396 2.11608 10.945 2.02043 11.0938C1.86164 11.3408 1.96014 11.5935 2.28466 11.7716C2.39982 11.8348 3.4097 12.1558 4.79617 12.5699L7.11507 13.2624L12.3139 10.1347C15.1733 8.41437 17.5819 6.9766 17.6664 6.93958C17.7509 6.90255 17.8661 6.87188 17.9225 6.87144C18.2199 6.86907 18.2209 7.0065 17.9256 7.28178C17.8041 7.39499 15.9163 9.02857 13.7304 10.912C11.5445 12.7954 9.73292 14.357 9.70465 14.3822C9.66687 14.4159 9.6143 14.9574 9.50536 16.4352C9.42395 17.5391 9.34869 18.5316 9.33817 18.6407L9.31897 18.839L9.48601 18.8209C9.80638 18.7862 9.95714 18.6728 11.1914 17.5383C11.8542 16.9291 12.4105 16.4307 12.4277 16.4307C12.4449 16.4307 13.406 17.0974 14.5635 17.9123C15.721 18.7271 16.7496 19.4508 16.8494 19.5204C17.0898 19.688 17.4022 19.7896 17.6771 19.7896C18.0645 19.7896 18.3481 19.5498 18.5115 19.0842C18.5427 18.9951 19.251 15.8458 20.0854 12.0857C21.1036 7.49683 21.6024 5.17787 21.6024 5.03225C21.6024 4.6135 21.4306 4.28092 21.1409 4.13885C20.9942 4.06691 20.5588 4.03893 20.412 4.09201Z" fill="white"/>
</svg>
